<?xml version="1.0" encoding="UTF-8"?>
<svg id="Logo_Image" data-name="Logo Image" xmlns="http://www.w3.org/2000/svg" viewBox="0 0 457.63 278.9">
  <defs>
    <style>
      .cls-1 {
        fill: #38563d;
      }

      .cls-1, .cls-2, .cls-3, .cls-4, .cls-5, .cls-6 {
        stroke-width: 0px;
      }

      .cls-2 {
        fill: #f58d2a;
      }

      .cls-3 {
        fill: #f38327;
      }

      .cls-4 {
        fill: #f5992d;
      }

      .cls-5 {
        fill: #f5972a;
      }

      .cls-6 {
        fill: #f4aa34;
      }
    </style>
  </defs>
  <path class="cls-6" d="M33.09,60.67c4.75-6.91,5.82-14.68,6.47-22.38.71-8.42.46-16.91.48-25.37,0-3.22-1.5-5.79-5.14-7.37-1.06-.46-1.51-1.92-2.25-2.92,1.24.02,2.48.04,3.72.07,1.5.04,3.05.31,4.5.08,5.29-.86,10.5-2.3,15.82-2.7,4.1-.3,8.47.2,12.43,1.2,2,.5,4.69,2.92,4.63,4.41-.05,1.48-2.88,3.42-4.98,4.2-6.46,2.41-13.27,2.1-20.05.89-1.51-.27-3-.62-5.23-1.09.31,2.41.72,4.49.82,6.57.6,13.52-.55,26.89-4.88,39.96-.6,1.83-1.88,3.49-2.84,5.23-1.17-.26-2.34-.52-3.51-.79ZM70.34,5.99c-5.86-4.15-16.89-3.92-26.64.23,9.03,2.68,17.51,3.42,26.64-.23Z"/>
  <path class="cls-6" d="M92.8,76.12c-1.84-2.49-3.69-4.97-5.53-7.46-5.16-8.04-10.75-15.9-15.35-24.17-4.27-7.66-5.44-15.98-3.55-24.43.24-1.07,1.47-1.98,2.24-2.96.45,1.1,1.44,2.27,1.26,3.29-1.75,10.35.83,19.97,6.63,29.01,3.12,4.86,6.63,9.54,9.96,14.3,2.46,3.84,4.93,7.67,7.39,11.51-1.02.3-2.03.6-3.05.9Z"/>
  <path class="cls-4" d="M33.09,60.67c1.17.26,2.34.52,3.51.79-5.94,4.07-11.88,8.15-17.82,12.22-6.59,4.14-8.94,9.94-8.86,16.65.03,2.28.26,4.55.41,6.83-.91.62-1.82,1.23-2.73,1.85-.35-1.59-.71-3.18-1.06-4.77,0-2.98.02-5.96.03-8.94,1.64-5.71,4.44-10.84,10.05-14.54,5.49-3.36,10.99-6.73,16.48-10.09Z"/>
  <path class="cls-4" d="M63.99,223.7c-10.57,1.83-20.09-1.48-29.78-4.25-2.99-.85-6.25-1.02-9.38-1.51-9.09-.77-17.09-3.1-21.22-10.92-1.14-4.13-2.27-8.25-3.41-12.38-.07-3.15-.14-6.29-.21-9.44.09-.25.19-.51.28-.76,1.08,0,2.16,0,3.24-.01,1.14,6.47,1.98,13,3.55,19.4.93,3.8,3.31,7.18,8.18,8.5.49.08.98.15,1.47.23-.24-.29-.47-.58-.71-.87-1.71-3.54-.97-5.53,3.21-6.77,3.44-1.02,7.11-1.56,10.72-2.08,13.16-1.89,25.35-.51,35.63,7.66.91.72,3.3.88,4.51.4,6-2.37,11.83-5.05,17.72-7.62.32.8.64,1.6.95,2.4-6.27,3.19-12.54,6.37-19.45,9.88,1.33,3.45-.6,6.42-5.33,8.11ZM62.12,212.61c-8.22-9.82-35.23-8.67-43.07-3.45,7.66,6.91,29.63,8.04,43.07,3.45ZM65.28,215.82c-6.52.98-12.78,1.92-19.04,2.86,0,.47,0,.95,0,1.42,5.24.23,10.49.71,15.72.57,2.71-.07,4.76-1.59,3.32-4.85Z"/>
  <path class="cls-2" d="M88.77,205.7c-.32-.8-.64-1.6-.95-2.4,10.65-6.75,14.83-15.93,13.15-26.96-1.58-10.42-3.67-20.77-5.53-31.16.6-10.19,1.21-20.38,1.81-30.57,4.08-13.3,3.38-26.19-4.44-38.49,1.02-.3,2.03-.6,3.05-.9,1.1,1.79,2.21,3.59,3.31,5.38.83,2.36,1.66,4.72,2.49,7.08.54,1.7,1.08,3.4,1.62,5.09.09,1.94.18,3.88.26,5.82-.51,3.88-1.02,7.76-1.53,11.64-3.5,18.52-4.18,36.95.53,55.49,1.71,6.73,2.07,13.94,1.41,20.81-.81,8.41-6.13,15.07-15.17,19.16Z"/>
  <path class="cls-3" d="M12.1,106.62c.72,16.7-3.3,32.96-6.2,49.34-.99,5.58-1.17,11.26-1.73,16.89-.22,3.87-.43,7.73-.65,11.6-1.08,0-2.16,0-3.24.02-.06-3.15-.12-6.3-.17-9.45.62-5.82,1.24-11.64,1.86-17.46,1.68-10.91,3.37-21.82,5.05-32.73.41-.86,1.15-1.71,1.17-2.57.11-5.2.04-10.4.04-15.59-.21-2.55-.42-5.09-.64-7.64.91-.62,1.82-1.23,2.73-1.85.59,3.15,1.18,6.3,1.78,9.45Z"/>
  <path class="cls-1" d="M16.02,211.7c.24.29.47.58.71.87-.49-.08-.98-.15-1.47-.23l.77-.64Z"/>
  <path class="cls-5" d="M457.63,276.53c-1.65,1.18-2.67,2.45-3.5,2.37-.96-.1-2.46-1.39-2.45-2.15.01-.8,1.42-1.99,2.45-2.22.73-.16,1.85,1.01,3.5,2Z"/>
</svg>